{"title":"Dirty Politics 2015 Hindi Dvd SCR GOPI SAHI PDR","uid":11738720,"size":724775190,"categoryP":"video","categoryS":"movies","magnet":"?xt=urn:btih:22dfca8703cb330a09e3b26b7a079cca0bafc2a0&amp;dn=Dirty+Politics+2015+Hindi+Dvd+SCR+GOPI+SAHI+PDR&amp;tr=udp%3A%2F%2Ftracker.openbittorrent.com%3A80&amp;tr=udp%3A%2F%2Fopen.demonii.com%3A1337&amp;tr=udp%3A%2F%2Ftracker.coppersurfer.tk%3A6969&amp;tr=udp%3A%2F%2Fexodus.desync.com%3A6969","seeders":1,"leechers":0,"uploader":"jatt13","files":1,"time":1425665565,"description":"Format version                 : Version 4 / Version 2\nFile size                      : 691 MiB\nDuration                       : 2h 10mn\nOverall bit rate               : 739 Kbps\n\nVideo\nID                             : 1\nFormat                         : MPEG-4 Visual\nCodec ID/Hint                  : XviD\nDuration                       : 2h 10mn\nBit rate                       : 644 Kbps\nWidth                          : 640 pixels\nHeight                         : 272 pixels\nDisplay aspect ratio           : 2.35:1\nFrame rate mode                : Constant\nFrame rate                     : 23.976 fps\nStream size                    : 603 MiB (87%)\nWriting library                : XviD 1.2.1 (UTC 2008-12-04)\n\nAudio\nID                             : 2\nFormat                         : MPEG Audio\nCodec ID/Hint                  : MP3\nDuration                       : 2h 10mn\nBit rate mode                  : Constant\nBit rate                       : 80.0 Kbps\nChannel(s)                     : 2 channels\nStream size                    : 74.8 MiB (11%)\n[img]http://i.imgur.com/kJjbcoV.jpg[/img]\n[img]http://i.imgur.com/PZPTzyB.jpg[/img]\n[img]http://i.imgur.com/tJOkrF7.jpg[/img]\n[img]http://i.imgur.com/8bJihlg.jpg[/img]\n[img]http://i.imgur.com/WjTqyHB.jpg[/img]","torrent":{"xt":"urn:btih:22dfca8703cb330a09e3b26b7a079cca0bafc2a0","amp;dn":"Dirty+Politics+2015+Hindi+Dvd+SCR+GOPI+SAHI+PDR","amp;tr":["udp%3A%2F%2Ftracker.openbittorrent.com%3A80","udp%3A%2F%2Fopen.demonii.com%3A1337","udp%3A%2F%2Ftracker.coppersurfer.tk%3A6969","udp%3A%2F%2Fexodus.desync.com%3A6969"],"infoHash":"22dfca8703cb330a09e3b26b7a079cca0bafc2a0","infoHashBuffer":{"type":"Buffer","data":[34,223,202,135,3,203,51,10,9,227,178,107,122,7,156,202,11,175,194,160]},"announce":[],"urlList":[]}}